<?xml version="1.0" encoding="utf-8"?>
<!-- Generator: Adobe Illustrator 22.0.1, SVG Export Plug-In . SVG Version: 6.00 Build 0)  -->
<svg version="1.1" id="Layer_1" xmlns="http://www.w3.org/2000/svg" xmlns:xlink="http://www.w3.org/1999/xlink" x="0px" y="0px"
	 viewBox="0 0 512 512" style="enable-background:new 0 0 512 512;" xml:space="preserve">
<style type="text/css">
	.st0{fill:#FFFFFF;}
</style>
<path class="st0" d="M239.1,6.3l-208,78c-18.7,7-31.1,25-31.1,45v225.1c0,18.2,10.3,34.8,26.5,42.9l208,104
	c13.5,6.8,29.4,6.8,42.9,0l208-104c16.3-8.1,26.5-24.8,26.5-42.9V129.3c0-20-12.4-37.9-31.1-44.9l-208-78C262,2.2,250,2.2,239.1,6.3
	z M256,68.4l192,72v1.1l-192,78l-192-78v-1.1C64,140.4,256,68.4,256,68.4z M288,424.4V275.5l160-65v133.9L288,424.4z"/>
</svg>
